<mxfile host="app.diagrams.net" agent="Mozilla/5.0 (Windows NT 10.0; Win64; x64; rv:134.0) Gecko/20100101 Firefox/134.0" version="24.9.3">
  <diagram id="C5RBs43oDa-KdzZeNtuy" name="Page-1">
    <mxGraphModel dx="712" dy="795" grid="1" gridSize="10" guides="1" tooltips="1" connect="1" arrows="1" fold="1" page="1" pageScale="1" pageWidth="827" pageHeight="1169" math="0" shadow="0">
      <root>
        <mxCell id="WIyWlLk6GJQsqaUBKTNV-0" />
        <mxCell id="WIyWlLk6GJQsqaUBKTNV-1" parent="WIyWlLk6GJQsqaUBKTNV-0" />
        <mxCell id="WIyWlLk6GJQsqaUBKTNV-3" value="&lt;div&gt;Chargement du&amp;nbsp;&lt;/div&gt;&lt;div&gt;stock&lt;/div&gt;" style="rounded=1;whiteSpace=wrap;html=1;fontSize=12;glass=0;strokeWidth=1;shadow=0;" parent="WIyWlLk6GJQsqaUBKTNV-1" vertex="1">
          <mxGeometry x="260" y="147" width="120" height="40" as="geometry" />
        </mxCell>
        <mxCell id="AnxUKIQXblbUILqlscT8-1" style="edgeStyle=none;curved=1;rounded=0;orthogonalLoop=1;jettySize=auto;html=1;fontSize=12;startSize=8;endSize=8;" edge="1" parent="WIyWlLk6GJQsqaUBKTNV-1" source="AnxUKIQXblbUILqlscT8-0" target="WIyWlLk6GJQsqaUBKTNV-3">
          <mxGeometry relative="1" as="geometry" />
        </mxCell>
        <mxCell id="AnxUKIQXblbUILqlscT8-0" value="Chargement du batch" style="rounded=1;whiteSpace=wrap;html=1;fontSize=12;glass=0;strokeWidth=1;shadow=0;" vertex="1" parent="WIyWlLk6GJQsqaUBKTNV-1">
          <mxGeometry x="260" y="88" width="120" height="40" as="geometry" />
        </mxCell>
        <mxCell id="AnxUKIQXblbUILqlscT8-6" value="" style="edgeStyle=none;curved=1;rounded=0;orthogonalLoop=1;jettySize=auto;html=1;fontSize=12;startSize=8;endSize=8;" edge="1" parent="WIyWlLk6GJQsqaUBKTNV-1" target="AnxUKIQXblbUILqlscT8-5">
          <mxGeometry relative="1" as="geometry">
            <mxPoint x="320" y="304" as="sourcePoint" />
          </mxGeometry>
        </mxCell>
        <mxCell id="AnxUKIQXblbUILqlscT8-11" style="edgeStyle=orthogonalEdgeStyle;rounded=0;orthogonalLoop=1;jettySize=auto;html=1;fontSize=12;startSize=8;endSize=8;entryX=0.5;entryY=0;entryDx=0;entryDy=0;" edge="1" parent="WIyWlLk6GJQsqaUBKTNV-1" target="AnxUKIQXblbUILqlscT8-10">
          <mxGeometry relative="1" as="geometry">
            <mxPoint x="270" y="254" as="sourcePoint" />
            <mxPoint x="160" y="300" as="targetPoint" />
          </mxGeometry>
        </mxCell>
        <mxCell id="AnxUKIQXblbUILqlscT8-2" value="&lt;div&gt;i &amp;lt;= nbre de produit&lt;/div&gt;" style="strokeWidth=2;html=1;shape=mxgraph.flowchart.decision;whiteSpace=wrap;" vertex="1" parent="WIyWlLk6GJQsqaUBKTNV-1">
          <mxGeometry x="270" y="207" width="100" height="100" as="geometry" />
        </mxCell>
        <mxCell id="AnxUKIQXblbUILqlscT8-3" style="edgeStyle=none;curved=1;rounded=0;orthogonalLoop=1;jettySize=auto;html=1;entryX=0.5;entryY=0;entryDx=0;entryDy=0;entryPerimeter=0;fontSize=12;startSize=8;endSize=8;" edge="1" parent="WIyWlLk6GJQsqaUBKTNV-1" source="WIyWlLk6GJQsqaUBKTNV-3" target="AnxUKIQXblbUILqlscT8-2">
          <mxGeometry relative="1" as="geometry" />
        </mxCell>
        <mxCell id="AnxUKIQXblbUILqlscT8-8" style="edgeStyle=orthogonalEdgeStyle;rounded=0;orthogonalLoop=1;jettySize=auto;html=1;fontSize=12;startSize=8;endSize=8;exitX=1;exitY=0.5;exitDx=0;exitDy=0;entryX=1;entryY=0.5;entryDx=0;entryDy=0;entryPerimeter=0;" edge="1" parent="WIyWlLk6GJQsqaUBKTNV-1" source="AnxUKIQXblbUILqlscT8-5" target="AnxUKIQXblbUILqlscT8-2">
          <mxGeometry relative="1" as="geometry">
            <mxPoint x="370" y="254" as="targetPoint" />
            <mxPoint x="430" y="514" as="sourcePoint" />
            <Array as="points">
              <mxPoint x="380" y="340" />
              <mxPoint x="400" y="340" />
              <mxPoint x="400" y="257" />
            </Array>
          </mxGeometry>
        </mxCell>
        <mxCell id="AnxUKIQXblbUILqlscT8-5" value="Optimisation du produit i" style="rounded=1;whiteSpace=wrap;html=1;absoluteArcSize=1;arcSize=14;strokeWidth=2;" vertex="1" parent="WIyWlLk6GJQsqaUBKTNV-1">
          <mxGeometry x="260" y="322" width="120" height="40" as="geometry" />
        </mxCell>
        <mxCell id="AnxUKIQXblbUILqlscT8-10" value="Gestion des contraintes globales" style="rounded=1;whiteSpace=wrap;html=1;absoluteArcSize=1;arcSize=14;strokeWidth=2;" vertex="1" parent="WIyWlLk6GJQsqaUBKTNV-1">
          <mxGeometry x="122" y="322" width="120" height="40" as="geometry" />
        </mxCell>
        <mxCell id="AnxUKIQXblbUILqlscT8-13" style="edgeStyle=none;curved=1;rounded=0;orthogonalLoop=1;jettySize=auto;html=1;entryX=0.5;entryY=0;entryDx=0;entryDy=0;fontSize=12;startSize=8;endSize=8;" edge="1" parent="WIyWlLk6GJQsqaUBKTNV-1" source="AnxUKIQXblbUILqlscT8-12" target="AnxUKIQXblbUILqlscT8-0">
          <mxGeometry relative="1" as="geometry" />
        </mxCell>
        <mxCell id="AnxUKIQXblbUILqlscT8-12" value="DÃ©but" style="strokeWidth=2;html=1;shape=mxgraph.flowchart.start_1;whiteSpace=wrap;" vertex="1" parent="WIyWlLk6GJQsqaUBKTNV-1">
          <mxGeometry x="270" y="10" width="100" height="60" as="geometry" />
        </mxCell>
        <mxCell id="AnxUKIQXblbUILqlscT8-14" value="Fin" style="strokeWidth=2;html=1;shape=mxgraph.flowchart.terminator;whiteSpace=wrap;" vertex="1" parent="WIyWlLk6GJQsqaUBKTNV-1">
          <mxGeometry x="132" y="385" width="100" height="60" as="geometry" />
        </mxCell>
        <mxCell id="AnxUKIQXblbUILqlscT8-15" style="edgeStyle=none;curved=1;rounded=0;orthogonalLoop=1;jettySize=auto;html=1;fontSize=12;startSize=8;endSize=8;exitX=0.5;exitY=1;exitDx=0;exitDy=0;entryX=0.5;entryY=0;entryDx=0;entryDy=0;entryPerimeter=0;" edge="1" parent="WIyWlLk6GJQsqaUBKTNV-1" source="AnxUKIQXblbUILqlscT8-10" target="AnxUKIQXblbUILqlscT8-14">
          <mxGeometry relative="1" as="geometry">
            <mxPoint x="190" y="390" as="sourcePoint" />
            <mxPoint x="182" y="390" as="targetPoint" />
          </mxGeometry>
        </mxCell>
      </root>
    </mxGraphModel>
  </diagram>
</mxfile>
